<?xml version="1.0" encoding="UTF-8"?>
<svg version="1.1" xmlns="http://www.w3.org/2000/svg" width="54" height="43">
<path d="M0 0 C17.82 0 35.64 0 54 0 C54 14.19 54 28.38 54 43 C36.18 43 18.36 43 0 43 C0 28.81 0 14.62 0 0 Z " fill="#020405" transform="translate(0,0)"/>
<path d="M0 0 C2.475 0.495 2.475 0.495 5 1 C6.3125 3.5625 6.3125 3.5625 7 6 C7.99 4.02 8.98 2.04 10 0 C11.32 0 12.64 0 14 0 C14 4.29 14 8.58 14 13 C13.34 13 12.68 13 12 13 C11.67 11.02 11.34 9.04 11 7 C10.34 8.98 9.68 10.96 9 13 C8.01 13 7.02 13 6 13 C5.34 11.68 4.68 10.36 4 9 C3.67 10.32 3.34 11.64 3 13 C2.01 13 1.02 13 0 13 C0 8.71 0 4.42 0 0 Z " fill="#B6B6B6" transform="translate(15,14)"/>
<path d="M0 0 C0.66 0 1.32 0 2 0 C2 14.19 2 28.38 2 43 C1.01 43 0.02 43 -1 43 C-1.02464574 37.03686834 -1.042834 31.07376605 -1.05493164 25.1105957 C-1.05997278 23.08031702 -1.06680557 21.05004198 -1.07543945 19.01977539 C-1.08751467 16.10822653 -1.09323034 13.1967255 -1.09765625 10.28515625 C-1.10281754 9.3716188 -1.10797882 8.45808136 -1.11329651 7.51686096 C-1.11349168 5.34424573 -1.06211805 3.17172704 -1 1 C-0.67 0.67 -0.34 0.34 0 0 Z " fill="#010103" transform="translate(52,0)"/>
<path d="M0 0 C7.75 -0.125 7.75 -0.125 10 1 C10 2.32 10 3.64 10 5 C9.34 5 8.68 5 8 5 C7.67 4.34 7.34 3.68 7 3 C4.47266765 2.34444881 4.47266765 2.34444881 2 2 C2 3.32 2 4.64 2 6 C3.65 6 5.3 6 7 6 C7 6.33 7 6.66 7 7 C5.35 7 3.7 7 2 7 C2 8.32 2 9.64 2 11 C3.98 11 5.96 11 8 11 C8 9.68 8 8.36 8 7 C8.66 7 9.32 7 10 7 C10 8.65 10 10.3 10 12 C6.78548731 13.60725635 3.56387464 13.05748185 0 13 C0 8.71 0 4.42 0 0 Z " fill="#E4E4E4" transform="translate(31,14)"/>
<path d="M0 0 C1.65 0 3.3 0 5 0 C7.09230769 4.43076923 7.09230769 4.43076923 6.625 7.3125 C6.41875 7.869375 6.2125 8.42625 6 9 C4.02 9 2.04 9 0 9 C0 6.03 0 3.06 0 0 Z " fill="#5A5A5B" transform="translate(33,16)"/>
<path d="M0 0 C7.75 -0.125 7.75 -0.125 10 1 C10 2.32 10 3.64 10 5 C9.34 5 8.68 5 8 5 C7.67 4.34 7.34 3.68 7 3 C5.35 2.67 3.7 2.34 2 2 C1.67 5.63 1.34 9.26 1 13 C0.67 13 0.34 13 0 13 C0 8.71 0 4.42 0 0 Z " fill="#C2C2C2" transform="translate(31,14)"/>
<path d="M0 0 C0.99 0 1.98 0 3 0 C3 4.29 3 8.58 3 13 C2.34 13 1.68 13 1 13 C0.67 8.71 0.34 4.42 0 0 Z " fill="#E3E3E3" transform="translate(26,14)"/>
<path d="M0 0 C0.99 0 1.98 0 3 0 C2.67 4.29 2.34 8.58 2 13 C1.34 13 0.68 13 0 13 C0 8.71 0 4.42 0 0 Z " fill="#D0D0D1" transform="translate(15,14)"/>
<path d="M0 0 C1.125 1.6875 1.125 1.6875 2 4 C1.125 6.75 1.125 6.75 0 9 C-0.66 9 -1.32 9 -2 9 C-1.125 2.25 -1.125 2.25 0 0 Z " fill="#C2C2C2" transform="translate(25,14)"/>
</svg>
